<svg width="24" height="24" viewBox="0 0 24 24" xmlns="http://www.w3.org/2000/svg">
  <path fill-rule="evenodd" clip-rule="evenodd" d="M3.9433 4.21967C4.2362 3.92678 4.71107 3.92678 5.00396 4.21967L20.504 19.7197C20.7969 20.0126 20.7969 20.4874 20.504 20.7803C20.2111 21.0732 19.7362 21.0732 19.4433 20.7803L3.9433 5.28033C3.65041 4.98744 3.65041 4.51256 3.9433 4.21967Z" />
  <path fill-rule="evenodd" clip-rule="evenodd" d="M6.4191 8.81679L3.2041 17.9131C3.06445 18.3213 3 18.6006 3 18.8584C3 19.4814 3.46191 19.8789 4.13867 19.8789C4.79395 19.8789 5.15918 19.5566 5.41699 18.7188L6.42676 15.6895H11.7334L12.7432 18.7188C12.9902 19.5459 13.377 19.8789 14.0322 19.8789C14.7305 19.8789 15.1924 19.4707 15.1924 18.8262C15.1924 18.5576 15.1279 18.2676 15.0098 17.9131L14.7334 17.131L11.0242 13.4219L11.1533 13.8203H7.00684L8.09202 10.4897L6.4191 8.81679ZM19.8115 17.9666L17.373 15.5281V6.31152C17.373 5.47363 17.8242 4.97949 18.5977 4.97949C19.3604 4.97949 19.8115 5.47363 19.8115 6.31152V17.9666ZM12.4141 10.5692L7.59284 5.74789C7.9409 5.21255 8.41024 4.96875 9.1123 4.96875C10.0898 4.96875 10.6162 5.43066 10.9814 6.51562L12.4141 10.5692Z" />
</svg>
