<svg xmlns="http://www.w3.org/2000/svg" width="128" height="128" fill="none"><path fill="url(#a)" d="M90.84 16.02a2.865 2.865 0 0 0-.816-3.076c-2.914-2.572-10.28-7.99-21.338-8.791C56.3 3.254 48.634 6.574 44.76 9.035c-1.671 1.06-1.765 3.467-.202 4.682l31.55 24.521c2.78 2.16 6.858.938 7.994-2.396L90.84 16.02Z"/><path fill="url(#b)" d="M13.068 88.805a3.6 3.6 0 0 0-1.455 3.959c1.2 4.312 4.774 13.283 14.92 21.446 10.147 8.163 22.151 9.043 27.282 8.918a3.587 3.587 0 0 0 3.334-2.512l20.224-64.007c1.459-4.62-3.718-8.498-7.739-5.796L13.068 88.805Z"/><path fill="url(#c)" d="M27.849 21.262a3.59 3.59 0 0 0-3.04.183c-3.744 2.037-13.33 8.314-18.273 21.21-3.816 9.937-2.472 20.928-1.423 26.303a2.874 2.874 0 0 0 3.866 2.12l60.68-23.692c4.333-1.692 4.351-7.818.025-9.532L27.85 21.262Z"/><path fill="url(#d)" d="M117.865 67.129c1.754 1.19 4.154.14 4.459-1.958.805-5.555 1.502-15.223-1.714-22.517-4.286-9.719-11.562-15.712-15.014-18.148a2.877 2.877 0 0 0-3.568.198L86.715 38.285c-2.5 2.217-2.242 6.194.525 8.073l30.625 20.778v-.007Z"/><path fill="url(#e)" d="M75.078 118.974a2.874 2.874 0 0 0 3.176 3.108c5.802-.621 17.723-2.925 26.655-11.458 8.695-8.303 11.523-18.162 12.346-22.085a3.596 3.596 0 0 0-.726-3.004L89.754 52.491c-2.899-3.578-8.68-1.81-9.082 2.778l-5.598 63.705h.004Z"/><defs><linearGradient id="a" x1="75.904" x2="64.672" y1="39.787" y2="5.496" gradientUnits="userSpaceOnUse"><stop offset=".17" stop-color="#F04837" style="stop-color:#f04837;stop-color:color(display-p3 .9412 .2824 .2157);stop-opacity:1"/><stop offset="1" stop-color="#FF7F00" style="stop-color:#ff7f00;stop-color:color(display-p3 1 .498 0);stop-opacity:1"/></linearGradient><linearGradient id="b" x1="75.976" x2="27.705" y1="52.251" y2="114.26" gradientUnits="userSpaceOnUse"><stop offset=".17" stop-color="#F04837" style="stop-color:#f04837;stop-color:color(display-p3 .9412 .2824 .2157);stop-opacity:1"/><stop offset="1" stop-color="#FF7F00" style="stop-color:#ff7f00;stop-color:color(display-p3 1 .498 0);stop-opacity:1"/></linearGradient><linearGradient id="c" x1="72.749" x2="6.676" y1="46.344" y2="46.103" gradientUnits="userSpaceOnUse"><stop offset=".17" stop-color="#F04837" style="stop-color:#f04837;stop-color:color(display-p3 .9412 .2824 .2157);stop-opacity:1"/><stop offset="1" stop-color="#FF7F00" style="stop-color:#ff7f00;stop-color:color(display-p3 1 .498 0);stop-opacity:1"/></linearGradient><linearGradient id="d" x1="85.288" x2="120.535" y1="45.622" y2="45.862" gradientUnits="userSpaceOnUse"><stop offset=".17" stop-color="#F04837" style="stop-color:#f04837;stop-color:color(display-p3 .9412 .2824 .2157);stop-opacity:1"/><stop offset="1" stop-color="#FF7F00" style="stop-color:#ff7f00;stop-color:color(display-p3 1 .498 0);stop-opacity:1"/></linearGradient><linearGradient id="e" x1="79.152" x2="99.344" y1="53.422" y2="112.683" gradientUnits="userSpaceOnUse"><stop offset=".17" stop-color="#F04837" style="stop-color:#f04837;stop-color:color(display-p3 .9412 .2824 .2157);stop-opacity:1"/><stop offset="1" stop-color="#FF7F00" style="stop-color:#ff7f00;stop-color:color(display-p3 1 .498 0);stop-opacity:1"/></linearGradient></defs></svg>