<svg height="183" viewBox="0 0 324 183" width="324" xmlns="http://www.w3.org/2000/svg" xmlns:xlink="http://www.w3.org/1999/xlink"><linearGradient id="a" x1="85.790274%" x2="17.416363%" y1="68.556147%" y2="68.556147%"><stop offset="0" stop-color="#f6c44e"/><stop offset="1" stop-color="#eb5950"/></linearGradient><g fill="none" fill-rule="evenodd"><path d="m91.9999754 0v45.2725351c-22.871091 0-41.8570485 16.3151421-45.5197009 37.7266709l-46.4802745.0005012c3.90917391-46.4762886 43.6059041-82.9997072 91.9999754-82.9997072z" fill="#4983f7"/><path d="m92.4999754 183c-48.13106 0-87.61204713-36.523414-91.49997553-82.999698l46.22766433.000501c3.6427466 21.411527 22.5255196 37.726667 45.2723112 37.726667 22.7471466 0 41.6301536-16.315649 45.2724816-37.7276679l46.227571-.0004212c-3.887484 46.4767221-43.368675 83.0006191-91.5000526 83.0006191z" fill="#8ab2f9"/><path d="m229.499975 0c48.13106 0 87.612047 36.5234186 91.499976 82.9997072l-46.227664-.0005012c-3.642747-21.4115288-22.52552-37.7266709-45.272312-37.7266709-22.746791 0-41.629564 16.3151421-45.272311 37.7266709l-46.227664.0005012c3.887928-46.4762886 43.368915-82.9997072 91.499975-82.9997072z" fill="url(#a)"/><path d="m447.212659 62.847755c-6.506156 0-11.768446 2.87969-15.786924 8.63918-4.018533 5.759435-6.027771 13.43859-6.027771 23.037465 0 9.21525 1.937478 16.7024 5.81249 22.462 3.874957 5.7596 9.256829 8.63885 16.145726 8.63885 3.827135 0 7.367173-.4796 10.620224-1.43935 3.252885-.9603 6.219059-2.15985 8.897971-3.59975l8.898522 17.5659c-3.731656 2.20825-8.228794 3.9116-13.490863 5.1117-5.26262 1.2001-10.237593 1.7996-14.925854 1.7996-15.595691 0-27.220451-4.75145-34.874776-14.25435-7.654308-9.5029-11.481404-21.54955-11.481404-36.1405 0-15.070495 4.090211-27.381145 12.27077-36.932225 8.180531-9.55108 19.494366-14.326565 33.941889-14.326565 4.114177 0 8.778444.62392 13.992967 1.871815 5.214743 1.247895 9.782871 3.11971 13.706035 5.615445l-7.032419 16.126385c-4.879603-1.535875-8.659136-2.615745-11.338048-3.239665-2.678912-.623975-5.788442-.935935-9.328535-.935935zm76.298028 81.650745c-6.827703-.10505-12.36878-.84315-16.622681-2.21265-4.254451-1.37005-7.615748-3.2934-10.084441-5.77005-2.468143-2.47665-4.148791-5.4802-5.041945-9.01065-.892604-3.5299-1.338906-7.5086-1.338906-11.93445v-76.4694755l23.51477-3.1012245v74.82805c0 2.10815.119418 4.0051.434746 5.69085.314777 1.6863.919018 3.10915 1.811622 4.268.893154 1.1594 2.17978 2.10815 3.860429 2.8457 1.680648.73755 3.939123 1.21165 6.775423 1.42285zm54.225401-73.443535c11.577434 0 20.882085 3.31782 27.914503 9.953625 7.032419 6.635805 10.548353 16.05241 10.548353 28.25086 0 11.71005-3.731105 20.76085-11.194417 27.15295-7.462762 6.39155-16.791626 9.5876-27.986044 9.5876-11.098663 0-20.140266-3.1713-27.124807-9.51445-6.984542-6.34315-10.476813-15.66235-10.476813-27.95815 0-11.71005 3.635902-20.883005 10.907706-27.51881 7.271253-6.635805 16.40861-9.953625 27.411519-9.953625zm-.430343 55.184085c4.497138 0 8.036736-1.3904 10.620444-4.17175 2.583158-2.78135 3.874736-7.05045 3.874736-12.80785 0-5.36745-1.172161-9.75865-3.515934-13.17415-2.344323-3.4155-5.716626-5.123085-10.11801-5.123085-4.592892 0-8.132489 1.512335-10.620443 4.537885-2.487404 3.025-3.731656 7.36725-3.731656 13.0273 0 5.5627 1.148498 9.90495 3.444394 13.02785 2.296446 3.12235 5.645085 4.6838 10.046469 4.6838zm80.546205 19.68835c-9.663453 0-16.504364-2.78355-20.522731-8.3512-4.018368-5.56765-6.027552-12.4784-6.027552-20.7339v-43.339615h23.680414v42.763765c0 3.2637.812808 5.7596 2.439526 7.48715 1.626718 1.7281 3.922614 2.5916 6.888788 2.5916 1.818226 0 3.970491-.4796 6.458445-1.4399 2.487403-.95975 4.783849-2.0636 6.888787-3.31155v-48.091065h23.680414v69.689015h-11.912022l-5.453578-6.19135c-2.966174 2.112-6.76937 4.12775-11.409589 6.04725-4.640769 1.92005-9.544036 2.8798-14.710902 2.8798zm98.773592-20.5898c1.43521 0 3.133468-.2882 5.094775-.86405s3.707442-1.2958 5.238406-2.15985v-27.357c-1.626718-1.3442-3.540148-2.44805-5.74084-3.31155-2.200692-.86416-4.209876-1.29613-6.027551-1.29613-4.78385 0-8.156703 1.94403-10.11801 5.83143s-2.941961 7.799-2.941961 11.7348c0 4.60735 1.123735 8.66305 3.372304 12.16655 2.248569 3.50405 5.956011 5.2558 11.122877 5.2558zm34.013595-89.3376v107.1917h-12.055654l-4.735972-7.0554c-2.3922 2.2077-5.572995 4.1998-9.544036 5.97575-3.970491 1.7754-8.539169 2.66365-13.706035 2.66365-10.811401 0-18.991768-3.47985-24.5411-10.439-5.549331-6.95915-8.323997-15.6706-8.323997-26.13325 0-10.4632 2.798329-19.318255 8.395538-26.56555 5.597208-7.247295 14.136377-10.870915 25.618057-10.870915 2.39165 0 4.927481.359975 7.606392 1.07987 2.678912.71995 5.214193 1.703845 7.606393 2.95174v-35.7195135zm52.50513 34.766985c0-7.77524 3.157682-14.30253 9.472496-19.582035 6.314813-5.279505 14.9734-7.91923 25.976309-7.91923 4.879604 0 9.854962.71995 14.926073 2.159795 5.071112 1.439845 9.519823 3.31166 13.347233 5.615445l-7.17605 16.846335c-4.401384-1.63185-8.084612-2.85571-11.050786-3.671635s-6.21906-1.223915-9.759208-1.223915c-3.444394 0-6.195396.71995-8.252457 2.159795s-3.085591 3.359675-3.085591 5.759435c0 2.68774 1.578841 4.94351 4.735972 6.76731 3.157682 1.823855 6.936665 3.88762 11.338049 6.191405 6.888787 3.551625 13.490863 7.91901 19.805677 13.10276 6.314814 5.1832 9.471945 11.80685 9.471945 19.86985 0 8.06355-3.324976 14.78235-9.974379 20.15805-6.649952 5.3757-15.954603 8.063-27.914503 8.063-4.688095 0-10.213213-.81565-16.575904-2.4475s-11.170754-3.5035-14.42364-5.6155l7.17605-18.1423c2.678912 1.53615 6.2906 2.9997 10.835615 4.39175 4.544464 1.39205 8.6828 2.0878 12.413905 2.0878 4.688646 0 8.228244-.86405 10.620444-2.5916 2.3922-1.7281 3.588025-3.7917 3.588025-6.19135 0-2.20825-1.698259-4.39175-5.094776-6.5516-3.397067-2.15985-7.104509-4.24765-11.122877-6.2634-6.601525-3.45565-13.13151-7.7033-19.589955-12.742675-6.458445-5.03954-9.687667-11.782815-9.687667-20.22999zm118.060876 74.440465c-8.705913 0-16.194539-2.25555-22.461476-6.7672s-9.400405-11.231-9.400405-20.15805v-24.47775-18.42995-23.680085l23.535682-3.45565v27.135735h19.981776v18.42995h-19.981776v21.45385c0 3.168.836472 5.71175 2.514919 7.63125 1.672944 1.92005 4.138336 2.8798 7.390671 2.8798 1.243702 0 2.702025-.2156 4.374969-.6479 1.672944-.43175 3.279851-1.0318 4.809714-1.7996l6.741305 16.2701c-1.623416 1.53615-4.204373 2.8556-7.748373 3.96-3.538497 1.10385-6.790832 1.6555-9.757006 1.6555zm55.718947.71995c-9.66346 0-16.50382-2.78355-20.526587-8.3512-4.017267-5.56765-6.025901-12.4784-6.025901-20.7339v-43.339615h23.679868v42.763765c0 3.2637.81446 5.7596 2.43787 7.48715 1.62892 1.7281 3.92372 2.5916 6.88989 2.5916 1.82153 0 3.97324-.4796 6.46065-1.4399 2.4874-.95975 4.78219-2.0636 6.88988-3.31155v-48.091065h23.67987v69.689015h-11.91423l-5.45357-6.19135c-2.96618 2.112-6.76882 4.12775-11.40794 6.04725-4.63912 1.92005-9.54789 2.8798-14.7098 2.8798zm98.76974-20.5898c1.43631 0 3.13677-.2882 5.09587-.86405 1.95911-.57585 3.7091-1.2958 5.23896-2.15985v-27.357c-1.62892-1.3442-3.5385-2.44805-5.73974-3.31155-2.20124-.86416-4.20988-1.29613-6.0314-1.29613-4.7822 0-8.15561 1.94403-10.11471 5.83143-1.96461 3.8874-2.94416 7.799-2.94416 11.7348 0 4.60735 1.12813 8.66305 3.3734 12.16655 2.25077 3.50405 5.95436 5.2558 11.12178 5.2558zm34.01469-89.3376v107.1917h-12.0573l-4.73267-7.0554c-2.39385 2.2077-5.57465 4.1998-9.54789 5.97575-3.96774 1.7754-8.53532 2.66365-13.70273 2.66365-10.81361 0-18.99122-3.47985-24.54386-10.439-5.54713-6.95915-8.32069-15.6706-8.32069-26.13325 0-10.4632 2.79558-19.318255 8.39223-26.56555 5.59666-7.247295 14.13748-10.870915 25.62246-10.870915 2.38835 0 4.92528.359975 7.6053 1.07987 2.68001.71995 5.21144 1.703845 7.60529 2.95174v-35.7195135zm45.24103 14.89697c0 3.55168-1.29323 6.575305-3.87418 9.071095-2.58096 2.495735-5.64619 3.74363-9.18469 3.74363-3.53849 0-6.5542-1.247895-9.0416-3.74363-2.4874-2.49579-3.7311-5.519415-3.7311-9.071095s1.2437-6.62332 3.7311-9.215085c2.4874-2.591743 5.50311-3.8876035 9.0416-3.8876035 3.5385 0 6.60373 1.2958605 9.18469 3.8876035 2.58095 2.591765 3.87418 5.663405 3.87418 9.215085zm-1.15015 22.461725v69.833005h-23.67986v-69.833005zm54.7394-2.33695c11.57303 0 20.87878 3.31782 27.91175 9.953625s10.54945 16.05263 10.54945 28.25053c0 11.7106-3.73111 20.7614-11.19332 27.15295-7.46221 6.3921-16.78997 9.58815-27.98879 9.58815-11.09426 0-20.13587-3.17185-27.12481-9.515-6.98344-6.3426-10.47241-15.6618-10.47241-27.9576 0-11.7106 3.63205-20.883225 10.90716-27.51903 7.2696-6.635805 16.40475-9.953625 27.41097-9.953625zm-.43475 55.224455c4.50154 0 8.04004-1.3904 10.62099-4.17175 2.58646-2.78135 3.87419-7.05045 3.87419-12.80785 0-5.36745-1.16666-9.75865-3.51098-13.17415s-5.71773-5.123195-10.12021-5.123195c-4.5951 0-8.13359 1.512445-10.621 4.537445-2.4874 3.02555-3.7311 7.3678-3.7311 13.02785 0 5.56215 1.15015 9.90495 3.44494 13.0273 2.2948 3.1229 5.64619 4.68435 10.04317 4.68435z" fill="#fff"/></g></svg>