<svg width="191" height="318" viewBox="0 0 191 318" xmlns="http://www.w3.org/2000/svg">
<g filter="url(#filter0_i_15473_4376)">
<path d="M55.0858 172.474L41.4271 134.089C39.0444 127.393 43.863 120.287 50.7183 120.609C127.255 124.198 166.522 152.143 162.862 232.729C149.551 176.449 85.7094 172.474 55.0858 172.474Z" />
</g>
<g filter="url(#filter1_i_15473_4376)">
<path d="M34.4532 101.833L20.2356 64.6391C17.6624 57.9076 22.4777 50.5991 29.4397 50.6827C107.603 51.6211 162.178 56.9261 162.178 161.405C148.867 105.125 65.0768 101.833 34.4532 101.833Z" />
</g>
<g filter="url(#filter2_i_15473_4376)">
<path d="M76.2445 245.377L61.5918 204.302C59.2158 197.641 63.9683 190.551 70.7876 190.914C133.232 194.241 164.465 221.501 160.848 301.153C147.537 244.873 107.089 245.377 76.2445 245.377Z" />
</g>
<defs>
<filter id="filter0_i_15473_4376" x="40.8101" y="120.598" width="122.286" height="116.131" filterUnits="userSpaceOnUse" color-interpolation-filters="sRGB">
<feFlood flood-opacity="0" result="BackgroundImageFix"/>
<feBlend mode="normal" in="SourceGraphic" in2="BackgroundImageFix" result="shape"/>
<feColorMatrix in="SourceAlpha" type="matrix" values="0 0 0 0 0 0 0 0 0 0 0 0 0 0 0 0 0 0 127 0" result="hardAlpha"/>
<feOffset dy="4"/>
<feGaussianBlur stdDeviation="2"/>
<feComposite in2="hardAlpha" operator="arithmetic" k2="-1" k3="1"/>
<feColorMatrix type="matrix" values="0 0 0 0 0 0 0 0 0 0 0 0 0 0 0 0 0 0 0.25 0"/>
<feBlend mode="normal" in2="shape" result="effect1_innerShadow_15473_4376"/>
</filter>
<filter id="filter1_i_15473_4376" x="19.5328" y="50.6816" width="142.645" height="114.724" filterUnits="userSpaceOnUse" color-interpolation-filters="sRGB">
<feFlood flood-opacity="0" result="BackgroundImageFix"/>
<feBlend mode="normal" in="SourceGraphic" in2="BackgroundImageFix" result="shape"/>
<feColorMatrix in="SourceAlpha" type="matrix" values="0 0 0 0 0 0 0 0 0 0 0 0 0 0 0 0 0 0 127 0" result="hardAlpha"/>
<feOffset dy="4"/>
<feGaussianBlur stdDeviation="2"/>
<feComposite in2="hardAlpha" operator="arithmetic" k2="-1" k3="1"/>
<feColorMatrix type="matrix" values="0 0 0 0 0 0 0 0 0 0 0 0 0 0 0 0 0 0 0.25 0"/>
<feBlend mode="normal" in2="shape" result="effect1_innerShadow_15473_4376"/>
</filter>
<filter id="filter2_i_15473_4376" x="60.972" y="190.9" width="100.158" height="114.252" filterUnits="userSpaceOnUse" color-interpolation-filters="sRGB">
<feFlood flood-opacity="0" result="BackgroundImageFix"/>
<feBlend mode="normal" in="SourceGraphic" in2="BackgroundImageFix" result="shape"/>
<feColorMatrix in="SourceAlpha" type="matrix" values="0 0 0 0 0 0 0 0 0 0 0 0 0 0 0 0 0 0 127 0" result="hardAlpha"/>
<feOffset dy="4"/>
<feGaussianBlur stdDeviation="2"/>
<feComposite in2="hardAlpha" operator="arithmetic" k2="-1" k3="1"/>
<feColorMatrix type="matrix" values="0 0 0 0 0 0 0 0 0 0 0 0 0 0 0 0 0 0 0.25 0"/>
<feBlend mode="normal" in2="shape" result="effect1_innerShadow_15473_4376"/>
</filter>
</defs>
</svg>
